<svg width="195" height="75" viewBox="0 0 195 75" fill="none" xmlns="http://www.w3.org/2000/svg">
<path fill-rule="evenodd" clip-rule="evenodd" d="M30.8897 2.5415C29.9397 2.4441 28.9757 2.3942 28 2.3942C27.1161 2.3942 26.2419 2.43515 25.3789 2.51526L24.0112 7.73884C25.3067 7.51231 26.6396 7.3942 28 7.3942C29.4687 7.3942 30.9052 7.53185 32.2974 7.79497L30.8897 2.5415ZM34.692 8.38289C44.1306 11.2487 51 20.0192 51 30.3942C51 37.3656 47.8983 43.6127 42.9997 47.8306L44.4078 53.0856C51.4313 47.9981 56 39.7297 56 30.3942C56 16.7132 46.188 5.32382 33.2173 2.8794L34.692 8.38289ZM0 30.3942C0 16.4686 10.1659 4.91733 23.4813 2.75691L22.0647 8.16732C12.2388 10.7844 5 19.744 5 30.3942C5 36.6287 7.4806 42.2839 11.5087 46.4265L10.0742 51.9048C3.91758 46.7686 0 39.0389 0 30.3942ZM41.4838 49.0292L42.8519 54.1351C38.547 56.8339 33.4557 58.3942 28 58.3942C25.0156 58.3942 22.1403 57.9273 19.443 57.0625L20.7121 52.2156C23.0023 52.9801 25.4528 53.3942 28 53.3942C33.0367 53.3942 37.6953 51.7752 41.4838 49.0292ZM19.043 51.5849C16.822 50.6449 14.7794 49.366 12.9799 47.813L11.5982 53.0899C13.4897 54.4593 15.5592 55.5979 17.7653 56.4647L19.043 51.5849Z" fill="#756BEE"/>
<path d="M24.8038 2.11871L33.2787 2.11871L30.7344 8.36142L13.6249 72.215L6.42618 72.215L24.8038 2.11871Z" fill="#756BEE"/>
<path d="M24.3279 3.94809L31.5059 2.39421L42.459 54.05L35.1739 54.05L24.3279 3.94809Z" fill="#756BEE"/>
<rect x="18.3607" y="44.6237" width="7.34426" height="16.5246" transform="rotate(-90 18.3607 44.6237)" fill="#756BEE"/>
<path d="M41.7705 40.7221L31.0984 46.8836L31.0984 34.5605L41.7705 40.7221Z" fill="black"/>
<path fill-rule="evenodd" clip-rule="evenodd" d="M6.259 72.1647L5.96722 73.6912L13.4723 73.6912L13.7705 72.1647H6.259Z" fill="black"/>
<path d="M72.72 24.16C70.8 24.16 67.84 25.16 66.56 27.56V13.16L59.56 14.64V15.32C61.2 15.92 61.6 16.52 61.6 17.88V42.8C61.6 43.44 64.08 42.56 65.52 41.32C66.68 42.52 68.44 43.2 70.52 43.36V42.64C68.48 42.28 66.56 40.48 66.56 36V30.92C66.56 28.08 68 25.84 70.72 25.84C74 25.84 75.48 27.92 75.48 34.32C75.48 39.84 74.48 42.2 72.16 42.6V43.36C77.36 43.08 81.2 40.16 81.2 34C81.2 27.68 77.2 24.16 72.72 24.16ZM90.3109 38.12V24.16L83.2709 25.76V26.44C84.9109 27.28 85.2709 27.88 85.2709 29.24V38.12C85.2709 40.2 85.2309 41.84 83.6709 42.32V43H91.9509V42.32C90.5109 41.92 90.3109 40.36 90.3109 38.12ZM95.0309 24.36C94.1909 24.72 92.8709 25.2 91.1509 27.48L91.5509 28.04C92.5509 27.12 93.4309 27.12 93.4309 27.44C93.4309 28.16 93.7509 28.84 94.3509 29.4C95.6309 30.48 97.4709 30.32 98.5509 29.08C99.6309 27.88 99.5109 25.96 98.2709 24.88C97.3909 24.16 95.8709 24 95.0309 24.36ZM105.367 30.88C106.407 30.16 106.687 28.76 105.967 27.72C105.607 27.2 105.087 26.92 104.487 26.84C104.287 26.84 104.327 26.44 104.927 25.96L104.647 25.32C102.927 26.36 102.447 27.28 102.087 27.88C101.687 28.56 101.727 29.52 102.207 30.28C102.927 31.32 104.327 31.56 105.367 30.88ZM117.687 40.92C115.727 40.92 115.767 38.12 115.767 38.12V32.16C115.767 27.44 114.327 24.16 109.087 24.16C109.087 24.16 107.647 24.08 106.127 24.6L106.407 25.2C108.807 24.48 110.727 26.52 110.727 30.28V32.76C103.727 34.52 100.367 34.92 100.367 39.28C100.367 43.36 104.967 43.36 104.967 43.36C106.927 43.36 108.647 42.4 109.727 41.4L109.247 40.72C108.927 40.88 108.527 40.92 108.087 40.92C105.487 40.92 105.487 38.28 105.487 38.28C105.487 36.24 106.807 34.36 110.727 33.48V39.76C110.727 43.36 114.767 43.36 114.767 43.36C117.287 43.36 119.127 41.8 119.447 40.52L118.767 40.24C118.527 40.92 117.687 40.92 117.687 40.92ZM127.46 38.08V13.16L120.46 14.84V15.52C122.06 16.12 122.46 16.52 122.46 17.92V38.08C122.46 40.12 122.38 41.84 120.86 42.28V43H129.1V42.28C127.66 41.92 127.46 40.28 127.46 38.08ZM139.1 38.08V30.36C139.1 25.56 137.26 24.16 134.06 24.16C132.1 24.16 129.62 25.52 128.26 27.12L128.78 27.96C129.42 27.44 130.14 27.16 130.78 27.16C133.1 27.16 134.14 28.24 134.14 30.52V38.08C134.14 40.12 134.06 41.88 132.54 42.32V43H140.74V42.32C139.34 41.96 139.1 40.28 139.1 38.08ZM148.023 30.88C149.063 30.16 149.343 28.76 148.623 27.72C148.263 27.2 147.743 26.92 147.143 26.84C146.943 26.84 146.983 26.44 147.583 25.96L147.303 25.32C145.583 26.36 145.103 27.28 144.743 27.88C144.343 28.56 144.383 29.52 144.863 30.28C145.583 31.32 146.983 31.56 148.023 30.88ZM160.343 40.92C158.383 40.92 158.423 38.12 158.423 38.12V32.16C158.423 27.44 156.983 24.16 151.743 24.16C151.743 24.16 150.303 24.08 148.783 24.6L149.063 25.2C151.463 24.48 153.383 26.52 153.383 30.28V32.76C146.383 34.52 143.023 34.92 143.023 39.28C143.023 43.36 147.623 43.36 147.623 43.36C149.583 43.36 151.303 42.4 152.383 41.4L151.903 40.72C151.583 40.88 151.183 40.92 150.743 40.92C148.143 40.92 148.143 38.28 148.143 38.28C148.143 36.24 149.463 34.36 153.383 33.48V39.76C153.383 43.36 157.423 43.36 157.423 43.36C159.943 43.36 161.783 41.8 162.103 40.52L161.423 40.24C161.183 40.92 160.343 40.92 160.343 40.92ZM169.877 38.2V24.16L162.877 25.76V26.44C164.517 27.32 164.877 28.04 164.877 29.44V38.2C164.877 40.24 164.837 41.88 163.317 42.32V43H171.517V42.32C170.117 41.92 169.877 40.4 169.877 38.2ZM192.037 38.12V30.24C192.037 25.4 190.117 24.16 186.997 24.16C184.997 24.16 182.997 25.52 181.797 27.16L182.357 27.8C182.877 27.36 183.517 27.04 184.117 27.04C185.917 27.04 187.037 28.12 187.037 30.36V38.12C187.037 40.16 186.957 41.88 185.437 42.32V43H193.677V42.32C192.237 41.96 192.037 40.32 192.037 38.12ZM180.957 38.12V30.44C180.957 27.68 180.597 24.16 175.917 24.16C173.917 24.16 172.077 25.52 170.837 27.16L171.317 27.8C171.837 27.36 172.477 27.04 173.077 27.04C174.877 27.04 175.957 28.12 175.957 30.36V38.12C175.957 40.16 175.877 41.88 174.357 42.32V43H182.597V42.32C181.157 41.96 180.957 40.32 180.957 38.12Z" fill="black"/>
<circle cx="178.5" cy="51.5" r="4.5" fill="#756BEE"/>
<circle cx="87.5" cy="51.5" r="4.5" fill="#756BEE"/>
</svg>
