<svg width="88" height="88" viewBox="0 0 88 88" fill="none" xmlns="http://www.w3.org/2000/svg">
<path d="M24.75 37.6749C27.3167 27.4082 33.7333 22.2749 44 22.2749C59.4 22.2749 61.325 33.8249 69.025 35.7499C74.1583 37.0332 78.65 35.1082 82.5 29.9749C79.9333 40.2416 73.5167 45.3749 63.25 45.3749C47.85 45.3749 45.925 33.8249 38.225 31.8999C33.0917 30.6166 28.6 32.5416 24.75 37.6749ZM5.5 60.7749C8.06667 50.5082 14.4833 45.3749 24.75 45.3749C40.15 45.3749 42.075 56.9249 49.775 58.8499C54.9083 60.1332 59.4 58.2082 63.25 53.0749C60.6833 63.3416 54.2667 68.4749 44 68.4749C28.6 68.4749 26.675 56.9249 18.975 54.9999C13.8417 53.7166 9.35 55.6416 5.5 60.7749Z" fill="#756BEE"/>
</svg>
